<?xml version="1.0" standalone="no"?>
<!DOCTYPE svg PUBLIC "-//W3C//DTD SVG 20010904//EN"
 "http://www.w3.org/TR/2001/REC-SVG-20010904/DTD/svg10.dtd">
<svg version="1.0" xmlns="http://www.w3.org/2000/svg"
 width="863.000000pt" height="863.000000pt" viewBox="0 0 863.000000 863.000000"
 preserveAspectRatio="xMidYMid meet">
<metadata>
Created by potrace 1.11, written by Peter Selinger 2001-2013
</metadata>
<g transform="translate(0.000000,863.000000) scale(0.100000,-0.100000)"
fill="#000000" stroke="none">
<path d="M0 4315 l0 -4315 4315 0 4315 0 0 4315 0 4315 -4315 0 -4315 0 0
-4315z m3087 1677 c63 -33 103 -73 146 -144 21 -34 339 -776 707 -1648 l668
-1585 -136 -3 c-74 -1 -139 1 -143 5 -4 4 -298 701 -654 1548 -356 847 -655
1554 -666 1571 -38 63 -91 62 -133 -3 -13 -21 -311 -729 -661 -1573 -351 -844
-641 -1539 -645 -1543 -3 -4 -68 -6 -142 -5 l-136 3 667 1580 c367 869 680
1604 696 1634 43 79 111 144 175 170 73 28 195 25 257 -7z m3409 17 c304 -42
576 -225 700 -471 197 -391 193 -1182 -9 -1583 -106 -212 -282 -359 -502 -418
-171 -46 -211 -49 -712 -54 l-483 -5 0 -404 0 -404 -125 0 -125 0 0 1538 c0
1725 -5 1604 73 1689 46 50 110 86 190 108 66 17 871 21 993 4z"/>
<path d="M5529 5751 l-39 -39 0 -1001 0 -1002 508 3 c493 3 509 4 572 25 102
35 188 91 275 179 89 90 121 145 160 279 43 148 58 301 59 590 1 282 -12 387
-68 570 -56 179 -177 316 -339 382 -119 48 -175 53 -649 53 l-440 0 -39 -39z"/>
</g>
</svg>
