<svg version="1" xmlns="http://www.w3.org/2000/svg" width="1150.667" height="1150.667" viewBox="0 0 863 863"><path d="M0 431.5V863h863V0H0v431.5zm308.7-167.7c6.3 3.3 10.3 7.3 14.6 14.4 2.1 3.4 33.9 77.6 70.7 164.8l66.8 158.5-13.6.3c-7.4.1-13.9-.1-14.3-.5-.4-.4-29.8-70.1-65.4-154.8-35.6-84.7-65.5-155.4-66.6-157.1-3.8-6.3-9.1-6.2-13.3.3-1.3 2.1-31.1 72.9-66.1 157.3-35.1 84.4-64.1 153.9-64.5 154.3-.3.4-6.8.6-14.2.5l-13.6-.3 66.7-158c36.7-86.9 68-160.4 69.6-163.4 4.3-7.9 11.1-14.4 17.5-17 7.3-2.8 19.5-2.5 25.7.7zm340.9-1.7c30.4 4.2 57.6 22.5 70 47.1 19.7 39.1 19.3 118.2-.9 158.3-10.6 21.2-28.2 35.9-50.2 41.8-17.1 4.6-21.1 4.9-71.2 5.4l-48.3.5V596h-25V442.2c0-172.5-.5-160.4 7.3-168.9 4.6-5 11-8.6 19-10.8 6.6-1.7 87.1-2.1 99.3-.4z"/><path d="M552.9 287.9l-3.9 3.9v200.3l50.8-.3c49.3-.3 50.9-.4 57.2-2.5 10.2-3.5 18.8-9.1 27.5-17.9 8.9-9 12.1-14.5 16-27.9 4.3-14.8 5.8-30.1 5.9-59 .1-28.2-1.2-38.7-6.8-57-5.6-17.9-17.7-31.6-33.9-38.2-11.9-4.8-17.5-5.3-64.9-5.3h-44l-3.9 3.9z"/></svg>