<svg xmlns="http://www.w3.org/2000/svg" viewBox="0 0 195.29 77.71"><defs><style>.cls-1{fill:#fff;}</style></defs><title>logo</title><g id="Layer_2" data-name="Layer 2"><g id="Слой_1" data-name="Слой 1"><path class="cls-1" d="M107.56,64.77q-2.18,2.52-7.8,2.52T92,64.77c-1.35-1.55-2-4.36-2-8.45q0-6.47,2-8.81t7.8-2.35q5.77,0,7.8,2.35t2,8.81c0,4.09-.68,6.9-2,8.45m1.58-19.06q-2.91-2.88-9.38-2.87t-9.38,2.87q-3,2.86-3.21,8.93H83V43.14H80.45V69.31H83V57h4.15Q87,63.4,90.38,66.64q3.06,3,9.38,3t9.38-3q3.21-3.26,3.21-10.56t-3.21-10.37m-37,20.14c-.63.76-1.78,1.14-3.46,1.14H59.33a1.62,1.62,0,0,1-1.26-.37,1.91,1.91,0,0,1-.32-1.26V56.82H69.21A3.53,3.53,0,0,1,72.09,58a5.94,5.94,0,0,1,1,3.82c0,2-.32,3.3-.94,4m0-12.47a3.61,3.61,0,0,1-2.88,1.12H57.75V46.4a.93.93,0,0,1,.24-.69,1.07,1.07,0,0,1,.79-.25H69.21A4,4,0,0,1,72,46.4q1,.93,1,3.45a5.26,5.26,0,0,1-1,3.53m2.79,4a4.19,4.19,0,0,0-2.66-1.61v-.1a3.91,3.91,0,0,0,2.62-1.53,6.52,6.52,0,0,0,1-4q0-3.45-1.33-5.09a5.9,5.9,0,0,0-4.84-1.92H58.24A3,3,0,0,0,56,44a3.08,3.08,0,0,0-.86,2.25v20a3.28,3.28,0,0,0,.64,2.27,2.84,2.84,0,0,0,2.17.84H70.14a5,5,0,0,0,4-1.63c1.16-1.25,1.73-3.36,1.73-6.32a6.74,6.74,0,0,0-.94-4M47.49,54.79h-16a13.17,13.17,0,0,1,1.29-6.22,5.86,5.86,0,0,1,3.31-2.67,13.28,13.28,0,0,1,3.9-.44c3.22,0,5.48.75,6.76,2.27a7.87,7.87,0,0,1,1.78,5.33c0,1.16-.36,1.73-1.08,1.73m-.35-10.17a13.06,13.06,0,0,0-6.67-1.48q-5.43,0-8.2,2.32a9.16,9.16,0,0,0-3,5.08,26.73,26.73,0,0,0-.49,5.78,36.62,36.62,0,0,0,.29,5.34,9.76,9.76,0,0,0,1.83,4.44,8.22,8.22,0,0,0,6.91,3.21H50.64V67H37.8c-3,0-5-1.51-5.82-4.54a18.74,18.74,0,0,1-.45-5.34h16a4,4,0,0,0,2.76-.79,4.35,4.35,0,0,0,1.09-3.4q0-5.84-4.2-8.3M21,64A6.74,6.74,0,0,1,15,67H6.52V46.74a1.17,1.17,0,0,1,.42-.94,1.24,1.24,0,0,1,.76-.34h7.56c3.09,0,5.2,1.26,6.32,3.8a18.35,18.35,0,0,1,.94,6.91q0,5.58-1.48,7.86M22.5,46.12a10.15,10.15,0,0,0-7.78-3H8.1a4.68,4.68,0,0,0-2.91.79A2.94,2.94,0,0,0,4,46.4V77.71H6.52v-8.4h7.41a15.62,15.62,0,0,0,5.48-.79,7.9,7.9,0,0,0,3.8-3.11c1.38-2.11,2.08-5.3,2.08-9.58q0-6.72-2.79-9.71"/><path class="cls-1" d="M195.29.39H174.4a3.83,3.83,0,0,0-2.82,1,3.88,3.88,0,0,0-1,2.87V35h2.66V5.09a3.38,3.38,0,0,1,.35-1.85c.23-.32,1-.47,2.42-.47h19.31Zm-31,0h-2.66V16.2H139.21V.39h-2.67V35h2.67V18.57h22.42V35h2.66Zm-34,3.91q0-4.3-3-4.3a3.32,3.32,0,0,0-2.46,1A17.87,17.87,0,0,0,123,3.66l-17.54,27.9c-.42.66-.74,1-.93,1-.4,0-.6-.5-.6-1.49V.39h-2.66v31q0,4,2.91,4a3.31,3.31,0,0,0,2.37-.94A15.13,15.13,0,0,0,108,32.35l17.83-28.1c.59-1,1-1.43,1.24-1.43s.49.32.49,1V35h2.67ZM95,20.15a5.14,5.14,0,0,0-4.2-2.62v-.2a5.87,5.87,0,0,0,2.71-1.53q1.88-1.87,1.88-6.22,0-5.13-2-7.26C92.13,1,90.23.39,87.67.39H70.33V2.77H88.16a3.88,3.88,0,0,1,3,1.13c.92,1,1.39,2.82,1.39,5.58,0,2.41-.37,4.07-1.09,5Q89.94,16.35,86,16.35H70.82v2.37h16.5a5.92,5.92,0,0,1,4.4,1.43c.92,1,1.38,2.86,1.38,5.73,0,3-.73,5-2.17,5.83a9.38,9.38,0,0,1-4.65.89H70.13V35h16.8a11.41,11.41,0,0,0,5.77-1.29C94.88,32.43,96,29.81,96,25.83a12.41,12.41,0,0,0-1-5.68M65.57,4.3q0-4.3-3-4.3a3.33,3.33,0,0,0-2.47,1,17.87,17.87,0,0,0-1.88,2.67L40.73,31.56c-.43.66-.74,1-.94,1-.4,0-.59-.5-.59-1.49V.39H36.53v31q0,4,2.92,4a3.27,3.27,0,0,0,2.36-.94,15.82,15.82,0,0,0,1.54-2.07L61.17,4.25c.6-1,1-1.43,1.24-1.43s.49.32.49,1V35h2.67ZM20.45,3A6.29,6.29,0,0,0,19.16.84,3,3,0,0,0,16.94,0a3,3,0,0,0-2.22.84A6.29,6.29,0,0,0,13.43,3L0,35H2.86l13-31.46c.33-.76.68-1.14,1-1.14s.71.38,1,1.14L31,35h2.87Z"/></g></g></svg>