<svg xmlns="http://www.w3.org/2000/svg" viewBox="0 0 22.67 22.67"><title>adult</title><g id="Layer_2" data-name="Layer 2"><g id="Layer_1-2" data-name="Layer 1"><path d="M7.17,15.2V9H5.75V7.46H9.13V15.2Z"/><path d="M16.51,9.46a1.8,1.8,0,0,1-1,1.6A2.11,2.11,0,0,1,16.92,13c0,1.39-1.23,2.27-3.16,2.27s-3.17-.87-3.17-2.23a2.15,2.15,0,0,1,1.47-2A1.94,1.94,0,0,1,11,9.41c0-1.24,1.08-2,2.76-2s2.76.8,2.76,2.07Zm-4.07,3.39c0,.65.47,1,1.32,1s1.32-.35,1.32-1-.47-1-1.32-1-1.32.37-1.32,1Zm.2-3.28c0,.55.4.86,1.12.86s1.11-.31,1.11-.86-.4-.89-1.11-.89-1.12.32-1.12.89Z"/><path d="M20.19,8.34a9.2,9.2,0,0,1,.49,3A9.35,9.35,0,1,1,11.34,2a9.46,9.46,0,0,1,3,.49V.4a11.52,11.52,0,0,0-3-.4A11.34,11.34,0,1,0,22.67,11.34a11.13,11.13,0,0,0-.4-3Z"/><path d="M19.62,3V.87H18.06V3H15.9V4.6h2.16V6.78h1.56V4.6H21.8V3Z"/></g></g></svg>