<svg xmlns="http://www.w3.org/2000/svg" viewBox="0 0 24.03 14.83">
    <title>angle</title>
    <g id="Layer_2" data-name="Layer 2">
        <g id="Layer_1-2" data-name="Layer 1">
            <g id="AHrj1q.tif">
                <path class="cls-1"
                      d="M24,2.77v.09a1.24,1.24,0,0,0-.18.14L12.19,14.65a1.18,1.18,0,0,0-.13.18H12c-.06-.07-.11-.15-.17-.21L.19,3,0,2.81,2.8.19C2.86.13,2.9.06,3,0h.09A1.49,1.49,0,0,0,3.2.2l8.67,8.86L12,9.2l.12-.11,9-9L21.21,0h.05a.44.44,0,0,0,.08.11l2.58,2.58Z"/>
            </g>
        </g>
    </g>
</svg>