<svg xmlns="http://www.w3.org/2000/svg" viewBox="0 0 30.74 30.73">
    <title>clock</title>
    <g id="Layer_2" data-name="Layer 2">
        <g id="Layer_1-2" data-name="Layer 1">
            <g id="Pifnnr.tif">
                <path class="cls-1"
                      d="M0,16.33V14.4l.06-.31c.09-.64.15-1.29.28-1.92a15.22,15.22,0,0,1,5.1-8.5A14.93,14.93,0,0,1,12.69.24C13.26.14,13.83.08,14.4,0h1.93c.37.05.75.08,1.12.14a15.11,15.11,0,0,1,9.92,5.68,14.87,14.87,0,0,1,3,12.66,14.78,14.78,0,0,1-5.09,8.57,15,15,0,0,1-12,3.53,14.84,14.84,0,0,1-8.63-4.26A15,15,0,0,1,.24,18C.14,17.47.08,16.9,0,16.33Zm27.66-1a12.39,12.39,0,0,0-12.3-12.3A12.37,12.37,0,0,0,3.07,15.34,12.38,12.38,0,0,0,15.35,27.66,12.38,12.38,0,0,0,27.66,15.37Z"/>
                <path class="cls-1"
                      d="M23.05,19.83l-1.23,2-.28-.16q-3.72-2.29-7.45-4.58a.5.5,0,0,1-.28-.5q0-4.26,0-8.52V7.71h2.32v.35q0,3.64,0,7.29a.49.49,0,0,0,.28.49l6.35,3.8Z"/>
            </g>
        </g>
    </g>
</svg>