<svg xmlns="http://www.w3.org/2000/svg" viewBox="0 0 31.85 31.85">
    <title>compas</title>
    <g id="Layer_2" data-name="Layer 2">
        <g id="Layer_1-2" data-name="Layer 1">
            <g id="UW2MY8.tif">
                <path class="cls-1"
                      d="M14.87,0H17a2.61,2.61,0,0,0,.27.06c.56.08,1.13.12,1.69.23a15.54,15.54,0,0,1,9,5.28,15.4,15.4,0,0,1,3.7,12.53,15.28,15.28,0,0,1-5.9,10.29,15.44,15.44,0,0,1-12.94,3.15,15.14,15.14,0,0,1-7.42-3.67A15.65,15.65,0,0,1,.19,18.33C.11,17.88.06,17.43,0,17V14.87a2.61,2.61,0,0,0,.06-.27c.08-.57.12-1.13.23-1.69A15.54,15.54,0,0,1,4,5.43,15.65,15.65,0,0,1,13.52.19C14,.11,14.42.06,14.87,0ZM25.45,6.42l-.34.13L12.64,12.33a.77.77,0,0,0-.31.31Q9.44,18.88,6.55,25.11a2.5,2.5,0,0,0-.12.32l.33-.13,12.43-5.78a.76.76,0,0,0,.35-.36l4.92-10.6Z"/>
                <path class="cls-1" d="M17.67,15.93A1.75,1.75,0,1,1,16,14.18,1.74,1.74,0,0,1,17.67,15.93Z"/>
            </g>
        </g>
    </g>
</svg>