<svg xmlns="http://www.w3.org/2000/svg" viewBox="0 0 21.35 21.35">
    <title>instagram</title>
    <g id="Layer_2" data-name="Layer 2">
        <g id="Layer_1-2" data-name="Layer 1">
            <g id="_Group_" data-name="&lt;Group&gt;">
                <path id="_Compound_Path_" data-name="&lt;Compound Path&gt;" class="cls-1"
                      d="M20.38,0H1A1,1,0,0,0,0,1V20.38a1,1,0,0,0,1,1H20.38a1,1,0,0,0,1-1V1a1,1,0,0,0-1-1ZM10.67,7A3.73,3.73,0,1,1,7,10.67,3.73,3.73,0,0,1,10.67,7Zm8,11.73h-16V9.34H4.42a6.4,6.4,0,1,0,12.65,1.33,6.45,6.45,0,0,0-.15-1.33h1.76Zm0-12h-4v-4h4Z"/>
            </g>
        </g>
    </g>
</svg>