<svg xmlns="http://www.w3.org/2000/svg" viewBox="0 0 23.26 20.95">
    <title>print</title>
    <g id="Layer_2" data-name="Layer 2">
        <g id="Layer_1-2" data-name="Layer 1">
            <g id="QB1AN5.tif">
                <path class="cls-1"
                      d="M0,16.31V8.9a.42.42,0,0,0,0-.15A3.27,3.27,0,0,1,.63,7.29a3.46,3.46,0,0,1,3-1.46h16a4,4,0,0,1,.92.09,3.39,3.39,0,0,1,2.69,3.38V16.1a1.83,1.83,0,0,1,0,.21H18.61V21h-14V16.31Zm7,2.3h9.26V12.83H7ZM18.62,9.33a1.09,1.09,0,0,0,1.14,1.16,1.11,1.11,0,0,0,1.17-1.15,1.11,1.11,0,0,0-1.17-1.17A1.09,1.09,0,0,0,18.62,9.33Z"/>
                <path class="cls-1"
                      d="M18.58,0a1.38,1.38,0,0,1,0,.2c0,1.44,0,2.89,0,4.33,0,0,0,.08,0,.13h-14c0-.07,0-.14,0-.22V.24a2,2,0,0,1,0-.24Z"/>
            </g>
        </g>
    </g>
</svg>