<svg xmlns="http://www.w3.org/2000/svg" viewBox="0 0 20.72 20.72">
    <title>user</title>
    <g id="Layer_2" data-name="Layer 2">
        <g id="Layer_1-2" data-name="Layer 1">
            <g id="_1ED30w.tif" data-name="1ED30w.tif">
                <path class="cls-1"
                      d="M0,16.59a5.08,5.08,0,0,1,3.14-3.1,16.48,16.48,0,0,1,7-1.64,16.06,16.06,0,0,1,8.69,2.36A6.1,6.1,0,0,1,20,15.27a2.71,2.71,0,0,1,.69,1.87c0,1.17,0,2.35,0,3.58H0Z"/>
                <path class="cls-1"
                      d="M10.93,0l.6.15A4.37,4.37,0,0,1,14.75,5a4.29,4.29,0,0,1-3.46,3.78A4.42,4.42,0,0,1,6,3.8,4.28,4.28,0,0,1,9.68.06.6.6,0,0,0,9.79,0Z"/>
            </g>
        </g>
    </g>
</svg>