<svg xmlns="http://www.w3.org/2000/svg" viewBox="0 0 22.03 22.03">
    <title>user-2</title>
    <g id="Layer_2" data-name="Layer 2">
        <g id="Layer_1-2" data-name="Layer 1">
            <g id="NRnMBh.tif">
                <path class="cls-1"
                      d="M19.92,22H2.11A.18.18,0,0,0,2,22,2.41,2.41,0,0,1,.22,20.58,5.11,5.11,0,0,1,0,19.92V2.11A1,1,0,0,0,0,2,2.41,2.41,0,0,1,1.45.22,5.11,5.11,0,0,1,2.11,0H19.92L20,0a2.41,2.41,0,0,1,1.8,1.41c.09.21.14.44.22.66V19.92A.18.18,0,0,0,22,20a2.41,2.41,0,0,1-1.41,1.8C20.37,21.9,20.14,22,19.92,22ZM2.46,19.56h17.1V2.46H2.46Z"/>
                <path class="cls-1"
                      d="M5.47,17.12a7.38,7.38,0,0,1,.13-1.36A2.21,2.21,0,0,1,6.85,14.5a9.24,9.24,0,0,1,8.31-.06,2.48,2.48,0,0,1,1.13,1,1.8,1.8,0,0,1,.22.64c0,.35,0,.7,0,1.07Z"/>
                <path class="cls-1" d="M10.9,5.88A2.69,2.69,0,1,1,8.33,8.71,2.69,2.69,0,0,1,10.9,5.88Z"/>
            </g>
        </g>
    </g>
</svg>