<svg xmlns="http://www.w3.org/2000/svg" viewBox="0 0 31.19 21.32">
    <title>view</title>
    <g id="Layer_2" data-name="Layer 2">
        <g id="Layer_1-2" data-name="Layer 1">
            <g id="dxpSGq.tif">
                <path class="cls-1"
                      d="M15.35,0h.49l1.48.12a16,16,0,0,1,5.74,1.66,16.45,16.45,0,0,1,7.45,7.39c.24.47.45.95.68,1.43v.12L31,11c-.35.69-.65,1.4-1,2.06a16.6,16.6,0,0,1-12.65,8.11l-1.51.13h-.49l-1.48-.13a16,16,0,0,1-5.75-1.65A16.5,16.5,0,0,1,.67,12.15c-.24-.47-.45-1-.67-1.43V10.6l.15-.3c.34-.69.64-1.4,1-2.06A16.41,16.41,0,0,1,7,2.42,16.22,16.22,0,0,1,13.84.13Zm7.32,10.67a7.08,7.08,0,0,0-14.15,0,7,7,0,0,0,7.05,7.1A7,7,0,0,0,22.67,10.67Z"/>
                <path class="cls-1" d="M19.85,10.66a4.26,4.26,0,1,1-8.52,0,4.26,4.26,0,0,1,8.52,0Z"/>
            </g>
        </g>
    </g>
</svg>